<svg width="408" height="48" viewBox="0 0 408 48" fill="none" xmlns="http://www.w3.org/2000/svg">
<g filter="url(#filter0_d_10_4)">
<path d="M37.877 14.7656C37.9225 14.9479 37.9453 15.2441 37.9453 15.6543C37.9453 18.0697 37.4896 20.485 36.5781 22.9004C35.6667 25.2702 34.3678 27.4577 32.6816 29.4629C31.041 31.4225 28.8991 33.0176 26.2559 34.248C23.6126 35.4785 20.696 36.0938 17.5059 36.0938C13.4954 36.0938 9.82682 35.0228 6.5 32.8809C7.0013 32.9264 7.57096 32.9492 8.20898 32.9492C11.5358 32.9492 14.5208 31.9238 17.1641 29.873C15.569 29.873 14.1562 29.4173 12.9258 28.5059C11.7409 27.5488 10.9206 26.3639 10.4648 24.9512C10.9206 24.9967 11.3535 25.0195 11.7637 25.0195C12.4017 25.0195 13.0397 24.9512 13.6777 24.8145C12.584 24.5866 11.6042 24.1309 10.7383 23.4473C9.8724 22.7637 9.1888 21.9434 8.6875 20.9863C8.1862 19.9837 7.93555 18.9128 7.93555 17.7734V17.6367C8.93815 18.2292 10.0091 18.5482 11.1484 18.5938C9.00651 17.1354 7.93555 15.1302 7.93555 12.5781C7.93555 11.3021 8.27734 10.0944 8.96094 8.95508C10.7383 11.1882 12.903 12.9655 15.4551 14.2871C18.0527 15.6087 20.8099 16.3379 23.7266 16.4746C23.6354 15.9277 23.5898 15.3809 23.5898 14.834C23.5898 12.8743 24.2734 11.1882 25.6406 9.77539C27.0534 8.36263 28.7396 7.65625 30.6992 7.65625C32.7956 7.65625 34.5501 8.4082 35.9629 9.91211C37.6035 9.5931 39.1302 9.02344 40.543 8.20312C39.9961 9.88932 38.9479 11.2109 37.3984 12.168C38.7656 11.9857 40.1328 11.5983 41.5 11.0059C40.4974 12.4642 39.2897 13.7174 37.877 14.7656Z" fill="#A79AE0"/>
<path d="M90.4629 18.3379C92.0124 16.7884 93.8809 16.0137 96.0684 16.0137C98.2559 16.0137 100.102 16.7884 101.605 18.3379C103.155 19.8418 103.93 21.6875 103.93 23.875C103.93 26.0625 103.155 27.931 101.605 29.4805C100.102 30.9844 98.2559 31.7363 96.0684 31.7363C93.8809 31.7363 92.0124 30.9844 90.4629 29.4805C88.959 27.931 88.207 26.0625 88.207 23.875C88.207 21.6875 88.959 19.8418 90.4629 18.3379ZM92.4453 27.498C93.4479 28.5007 94.6556 29.002 96.0684 29.002C97.4811 29.002 98.6888 28.5007 99.6914 27.498C100.694 26.4954 101.195 25.2878 101.195 23.875C101.195 22.4622 100.694 21.2546 99.6914 20.252C98.6888 19.2493 97.4811 18.748 96.0684 18.748C94.6556 18.748 93.4479 19.2493 92.4453 20.252C91.4427 21.2546 90.9414 22.4622 90.9414 23.875C90.9414 25.2878 91.4427 26.4954 92.4453 27.498ZM105.502 14.4414C105.867 14.7604 106.049 15.1706 106.049 15.6719C106.049 16.1732 105.867 16.6061 105.502 16.9707C105.183 17.3353 104.773 17.5176 104.271 17.5176C103.77 17.5176 103.337 17.3353 102.973 16.9707C102.608 16.6061 102.426 16.1732 102.426 15.6719C102.426 15.1706 102.608 14.7604 102.973 14.4414C103.337 14.0768 103.77 13.8945 104.271 13.8945C104.773 13.8945 105.183 14.0768 105.502 14.4414ZM111.312 17.5859C111.358 18.8164 111.381 20.9128 111.381 23.875C111.381 26.8372 111.358 28.9336 111.312 30.1641C111.176 32.944 110.333 35.1087 108.783 36.6582C107.279 38.1621 105.137 38.9596 102.357 39.0508C101.127 39.1419 99.0306 39.1875 96.0684 39.1875C93.1061 39.1875 91.0098 39.1419 89.7793 39.0508C86.9993 38.9141 84.8574 38.0938 83.3535 36.5898C82.7611 36.043 82.2826 35.4049 81.918 34.6758C81.5534 33.9466 81.2799 33.2402 81.0977 32.5566C80.9609 31.873 80.8926 31.0755 80.8926 30.1641C80.8014 28.9336 80.7559 26.8372 80.7559 23.875C80.7559 20.9128 80.8014 18.7936 80.8926 17.5176C81.0293 14.7832 81.8496 12.6641 83.3535 11.1602C84.8574 9.61068 86.9993 8.76758 89.7793 8.63086C91.0098 8.58529 93.1061 8.5625 96.0684 8.5625C99.0306 8.5625 101.127 8.58529 102.357 8.63086C105.137 8.76758 107.279 9.61068 108.783 11.1602C110.333 12.6641 111.176 14.806 111.312 17.5859ZM108.031 32.8984C108.168 32.5339 108.282 32.0781 108.373 31.5312C108.464 30.9388 108.533 30.2552 108.578 29.4805C108.624 28.6602 108.646 27.9993 108.646 27.498C108.646 26.9967 108.646 26.2904 108.646 25.3789C108.646 24.4674 108.646 23.9661 108.646 23.875C108.646 23.7383 108.646 23.237 108.646 22.3711C108.646 21.4596 108.646 20.7533 108.646 20.252C108.646 19.7507 108.624 19.1126 108.578 18.3379C108.533 17.5176 108.464 16.834 108.373 16.2871C108.282 15.6947 108.168 15.2161 108.031 14.8516C107.484 13.4388 106.505 12.459 105.092 11.9121C104.727 11.7754 104.249 11.6615 103.656 11.5703C103.109 11.4792 102.426 11.4108 101.605 11.3652C100.831 11.3197 100.193 11.2969 99.6914 11.2969C99.2357 11.2969 98.5293 11.2969 97.5723 11.2969C96.6608 11.2969 96.1595 11.2969 96.0684 11.2969C95.9772 11.2969 95.4759 11.2969 94.5645 11.2969C93.653 11.2969 92.9466 11.2969 92.4453 11.2969C91.944 11.2969 91.2832 11.3197 90.4629 11.3652C89.6882 11.4108 89.0046 11.4792 88.4121 11.5703C87.8652 11.6615 87.4095 11.7754 87.0449 11.9121C85.6322 12.459 84.6523 13.4388 84.1055 14.8516C83.9688 15.2161 83.8548 15.6947 83.7637 16.2871C83.6725 16.834 83.6042 17.5176 83.5586 18.3379C83.513 19.1126 83.4902 19.7507 83.4902 20.252C83.4902 20.7077 83.4902 21.4141 83.4902 22.3711C83.4902 23.2826 83.4902 23.7839 83.4902 23.875C83.4902 24.0573 83.4902 24.4902 83.4902 25.1738C83.4902 25.8118 83.4902 26.3587 83.4902 26.8145C83.4902 27.2246 83.4902 27.7715 83.4902 28.4551C83.5358 29.1387 83.5814 29.7311 83.627 30.2324C83.6725 30.6882 83.7409 31.1667 83.832 31.668C83.9232 32.1693 84.0143 32.5794 84.1055 32.8984C84.6979 34.3112 85.6777 35.291 87.0449 35.8379C87.4095 35.9746 87.8652 36.0885 88.4121 36.1797C89.0046 36.2708 89.6882 36.3392 90.4629 36.3848C91.2832 36.4303 91.9212 36.4531 92.377 36.4531C92.8783 36.4531 93.5846 36.4531 94.4961 36.4531C95.4531 36.4531 95.9772 36.4531 96.0684 36.4531C96.2051 36.4531 96.7064 36.4531 97.5723 36.4531C98.4837 36.4531 99.1901 36.4531 99.6914 36.4531C100.193 36.4531 100.831 36.4303 101.605 36.3848C102.426 36.3392 103.109 36.2708 103.656 36.1797C104.249 36.0885 104.727 35.9746 105.092 35.8379C106.505 35.2454 107.484 34.2656 108.031 32.8984Z" fill="#A79AE0"/>
<path d="M306.395 29.5137C306.395 29.696 306.281 29.7871 306.053 29.7871C305.779 29.8327 305.643 29.7415 305.643 29.5137C305.643 29.377 305.757 29.3086 305.984 29.3086C306.258 29.263 306.395 29.3314 306.395 29.5137ZM304.549 29.582C304.275 29.5365 304.161 29.4225 304.207 29.2402C304.298 29.0579 304.458 29.0124 304.686 29.1035C304.913 29.1491 305.005 29.263 304.959 29.4453C304.913 29.6276 304.777 29.6732 304.549 29.582ZM307.283 29.1035C307.511 29.1035 307.625 29.1719 307.625 29.3086C307.671 29.4453 307.579 29.5592 307.352 29.6504C307.124 29.696 306.987 29.6276 306.941 29.4453C306.941 29.263 307.055 29.1491 307.283 29.1035ZM311.795 2.92188C314.894 2.92188 317.765 3.65104 320.408 5.10938C323.051 6.56771 325.125 8.57292 326.629 11.125C328.178 13.6771 328.953 16.5026 328.953 19.6016C328.953 23.3841 327.882 26.7793 325.74 29.7871C323.644 32.7493 320.887 34.8001 317.469 35.9395C317.104 36.0306 316.808 35.985 316.58 35.8027C316.398 35.6204 316.307 35.3926 316.307 35.1191C316.307 35.0736 316.307 34.3444 316.307 32.9316C316.307 31.4733 316.307 30.2884 316.307 29.377C316.307 27.9186 315.919 26.8704 315.145 26.2324C316.147 26.0957 316.922 25.9818 317.469 25.8906C318.016 25.7995 318.699 25.5944 319.52 25.2754C320.34 24.9564 320.955 24.5462 321.365 24.0449C321.821 23.5436 322.208 22.8372 322.527 21.9258C322.846 21.0143 323.006 19.9206 323.006 18.6445C323.006 17.7786 322.869 17.0723 322.596 16.5254C322.322 15.9785 321.867 15.3633 321.229 14.6797C321.775 13.2669 321.73 11.7174 321.092 10.0312C320.636 9.89453 320.021 9.98568 319.246 10.3047C318.471 10.5781 317.788 10.8971 317.195 11.2617L316.375 11.877C314.962 11.4668 313.504 11.2617 312 11.2617C310.542 11.2617 309.129 11.4668 307.762 11.877C307.534 11.6947 307.215 11.4896 306.805 11.2617C306.395 10.9883 305.757 10.6921 304.891 10.373C304.07 10.0085 303.455 9.89453 303.045 10.0312C302.361 11.7174 302.293 13.2669 302.84 14.6797C301.792 15.819 301.268 17.1406 301.268 18.6445C301.268 19.9206 301.427 21.0143 301.746 21.9258C302.065 22.8372 302.43 23.5436 302.84 24.0449C303.25 24.5462 303.842 24.9564 304.617 25.2754C305.392 25.5944 306.053 25.8223 306.6 25.959C307.192 26.0501 307.967 26.1413 308.924 26.2324C308.331 26.7793 307.967 27.554 307.83 28.5566C307.374 28.7389 306.896 28.8757 306.395 28.9668C305.939 29.0579 305.346 28.9668 304.617 28.6934C303.888 28.4199 303.296 27.8958 302.84 27.1211C302.566 26.6198 302.202 26.2324 301.746 25.959C301.336 25.64 300.971 25.4577 300.652 25.4121L300.242 25.3438C299.24 25.3438 299.194 25.6855 300.105 26.3691C300.424 26.5514 300.743 26.8477 301.062 27.2578C301.382 27.668 301.609 28.0326 301.746 28.3516L302.02 28.8984C302.202 29.4453 302.521 29.901 302.977 30.2656C303.432 30.6302 303.934 30.8581 304.48 30.9492C305.027 31.0404 305.551 31.0859 306.053 31.0859C306.554 31.0859 306.964 31.0632 307.283 31.0176L307.762 30.9492C307.762 31.4961 307.762 32.3164 307.762 33.4102C307.807 34.5039 307.83 35.0736 307.83 35.1191C307.83 35.3926 307.716 35.6204 307.488 35.8027C307.306 35.985 307.033 36.0306 306.668 35.9395C303.204 34.8001 300.402 32.7493 298.26 29.7871C296.118 26.7793 295.047 23.3841 295.047 19.6016C295.047 14.862 296.642 10.8971 299.832 7.70703C303.068 4.51693 307.055 2.92188 311.795 2.92188ZM301.678 26.5059C301.769 26.4147 301.883 26.4375 302.02 26.5742C302.156 26.7109 302.179 26.8249 302.088 26.916C301.997 27.0072 301.883 26.9844 301.746 26.8477C301.609 26.7109 301.587 26.597 301.678 26.5059ZM300.926 25.959C301.017 25.8678 301.131 25.8451 301.268 25.8906C301.404 25.9818 301.45 26.0729 301.404 26.1641C301.359 26.3008 301.268 26.3236 301.131 26.2324C300.949 26.1413 300.88 26.0501 300.926 25.959ZM303.182 28.3516C303.273 28.2148 303.41 28.2376 303.592 28.4199C303.774 28.6022 303.82 28.7617 303.729 28.8984C303.592 29.0352 303.432 29.0124 303.25 28.8301C303.068 28.6478 303.045 28.4883 303.182 28.3516ZM302.361 27.3945C302.498 27.2578 302.635 27.3034 302.771 27.5312C302.908 27.7135 302.908 27.8503 302.771 27.9414C302.635 28.0326 302.498 27.987 302.361 27.8047C302.27 27.5768 302.27 27.4401 302.361 27.3945Z" fill="#A79AE0"/>
<path d="M376.07 16.3203C376.344 16.3203 376.617 16.4342 376.891 16.6621C377.164 16.8444 377.301 17.1178 377.301 17.4824V22.2676C377.301 22.6777 377.164 22.974 376.891 23.1562C376.617 23.3385 376.344 23.4297 376.07 23.4297H374.908V16.3203H376.07ZM396.305 4.5625C397.125 4.5625 397.831 4.85872 398.424 5.45117C399.016 6.04362 399.312 6.75 399.312 7.57031V32.1797C399.312 33 399.016 33.7064 398.424 34.2988C397.831 34.8913 397.125 35.1875 396.305 35.1875H371.695C370.875 35.1875 370.169 34.8913 369.576 34.2988C368.984 33.7064 368.688 33 368.688 32.1797V7.57031C368.688 6.75 368.984 6.04362 369.576 5.45117C370.169 4.85872 370.875 4.5625 371.695 4.5625H396.305ZM379.215 22.2676V17.4141C379.215 16.6393 378.941 15.9102 378.395 15.2266C377.893 14.543 377.096 14.2012 376.002 14.2012H372.721V25.4805H375.934C377.073 25.4805 377.893 25.1615 378.395 24.5234C378.941 23.8398 379.215 23.0879 379.215 22.2676ZM386.119 16.252V14.2012H381.812C381.402 14.2012 381.061 14.3379 380.787 14.6113C380.559 14.8848 380.445 15.2266 380.445 15.6367V24.1816C380.445 24.5462 380.582 24.8652 380.855 25.1387C381.129 25.4121 381.471 25.526 381.881 25.4805H386.119V23.498H382.496V20.9004H384.684V18.8496H382.496V16.252H386.119ZM393.229 24.1133L395.826 14.2012H393.57L391.588 21.9941L389.537 14.2012H387.35L389.947 24.1133C390.312 24.9792 390.813 25.4577 391.451 25.5488C392.135 25.5944 392.727 25.1159 393.229 24.1133Z" fill="#A79AE0"/>
<path d="M155.969 9.91211C159.296 6.58529 163.306 4.92188 168 4.92188C172.694 4.92188 176.682 6.58529 179.963 9.91211C183.29 13.1934 184.953 17.181 184.953 21.875C184.953 26.569 183.29 30.5794 179.963 33.9062C176.682 37.1875 172.694 38.8281 168 38.8281C163.306 38.8281 159.296 37.1875 155.969 33.9062C152.688 30.5794 151.047 26.569 151.047 21.875C151.047 17.181 152.688 13.1934 155.969 9.91211ZM179.211 12.7148C178.938 13.0794 178.573 13.4896 178.117 13.9453C177.707 14.401 176.841 15.1074 175.52 16.0645C174.198 17.0215 172.74 17.819 171.145 18.457C171.555 19.3685 171.965 20.3255 172.375 21.3281C175.702 20.8724 179.074 21.0091 182.492 21.7383C182.447 18.3659 181.353 15.3581 179.211 12.7148ZM177.57 11.0742C175.793 9.47917 173.765 8.4082 171.486 7.86133C169.208 7.26888 166.906 7.24609 164.582 7.79297C166.542 10.3906 168.342 13.2161 169.982 16.2695C171.532 15.7227 172.922 15.0163 174.152 14.1504C175.428 13.2845 176.249 12.6465 176.613 12.2363C177.023 11.7806 177.342 11.3932 177.57 11.0742ZM161.848 8.81836C160.48 9.45638 159.25 10.2767 158.156 11.2793C157.062 12.2819 156.128 13.444 155.354 14.7656C154.624 16.0417 154.123 17.4316 153.85 18.9355C158.133 18.9811 162.577 18.3887 167.18 17.1582C165.539 14.196 163.762 11.416 161.848 8.81836ZM153.508 21.875C153.508 25.612 154.761 28.8477 157.268 31.582C158.042 30.2148 159.045 28.8932 160.275 27.6172C161.506 26.3411 162.941 25.179 164.582 24.1309C166.223 23.0827 167.886 22.3307 169.572 21.875C169.253 21.0547 168.866 20.2344 168.41 19.4141C163.488 20.8724 158.521 21.556 153.508 21.4648C153.508 21.6016 153.508 21.7383 153.508 21.875ZM159.113 33.291C161.21 34.9772 163.579 35.9798 166.223 36.2988C168.866 36.6178 171.35 36.2533 173.674 35.2051C173.081 31.696 172.056 28.0501 170.598 24.2676C167.818 25.179 165.402 26.5007 163.352 28.2324C161.346 29.9186 159.934 31.6048 159.113 33.291ZM176.066 33.9062C179.576 31.5365 181.649 28.3008 182.287 24.1992C179.416 23.2878 176.408 23.0827 173.264 23.584C174.585 27.2298 175.52 30.6706 176.066 33.9062Z" fill="#A79AE0"/>
<path d="M231.523 33H225.166V12.5605H231.523V33ZM228.379 9.75781C227.376 9.75781 226.51 9.39323 225.781 8.66406C225.052 7.9349 224.688 7.06901 224.688 6.06641C224.688 5.0638 225.052 4.19792 225.781 3.46875C226.51 2.73958 227.376 2.375 228.379 2.375C229.017 2.375 229.609 2.53451 230.156 2.85352C230.749 3.17253 231.204 3.62826 231.523 4.2207C231.888 4.76758 232.07 5.38281 232.07 6.06641C232.07 6.70443 231.888 7.31966 231.523 7.91211C231.204 8.45898 230.749 8.91471 230.156 9.2793C229.609 9.59831 229.017 9.75781 228.379 9.75781ZM255.312 33H248.955V23.0195C248.955 22.2448 248.932 21.6296 248.887 21.1738C248.841 20.6725 248.727 20.1257 248.545 19.5332C248.363 18.8952 248.021 18.4167 247.52 18.0977C247.064 17.7786 246.449 17.6191 245.674 17.6191C244.17 17.6191 243.145 18.0977 242.598 19.0547C242.096 20.0117 241.846 21.2878 241.846 22.8828V33H235.488V12.5605H241.641V15.3633H241.709C242.165 14.4518 242.917 13.6771 243.965 13.0391C245.013 12.3555 246.266 12.0137 247.725 12.0137C249.274 12.0137 250.55 12.2643 251.553 12.7656C252.601 13.2214 253.376 13.9277 253.877 14.8848C254.424 15.7962 254.788 16.7988 254.971 17.8926C255.199 18.9863 255.312 20.2852 255.312 21.7891V33Z" fill="#A79AE0"/>
</g>
<defs>
<filter id="filter0_d_10_4" x="2.5" y="2.375" width="400.812" height="44.8125" filterUnits="userSpaceOnUse" color-interpolation-filters="sRGB">
<feFlood flood-opacity="0" result="BackgroundImageFix"/>
<feColorMatrix in="SourceAlpha" type="matrix" values="0 0 0 0 0 0 0 0 0 0 0 0 0 0 0 0 0 0 127 0" result="hardAlpha"/>
<feOffset dy="4"/>
<feGaussianBlur stdDeviation="2"/>
<feComposite in2="hardAlpha" operator="out"/>
<feColorMatrix type="matrix" values="0 0 0 0 0 0 0 0 0 0 0 0 0 0 0 0 0 0 0.25 0"/>
<feBlend mode="normal" in2="BackgroundImageFix" result="effect1_dropShadow_10_4"/>
<feBlend mode="normal" in="SourceGraphic" in2="effect1_dropShadow_10_4" result="shape"/>
</filter>
</defs>
</svg>
